<?xml version="1.0" encoding="UTF-8" standalone="no"?>
<svg xmlns="http://www.w3.org/2000/svg" xmlns:xlink="http://www.w3.org/1999/xlink" xmlns:serif="http://www.serif.com/" width="100%" height="100%" viewBox="0 0 301 300" version="1.1" xml:space="preserve" style="fill-rule:evenodd;clip-rule:evenodd;stroke-linejoin:round;stroke-miterlimit:2;">
    <g id="Calque_1-2">
        <path d="M173.78,250.65C148.32,250.65 124,242.58 103.59,227.46C102.46,226.58 102.2,225.07 103.09,223.93C103.97,222.8 105.48,222.54 106.62,223.43C126.15,237.92 149.47,245.61 173.79,245.61C194.33,245.61 214.49,240.07 232.01,229.48C233.14,228.72 234.78,229.1 235.41,230.36C236.17,231.49 235.79,233.13 234.53,233.76C216.38,244.85 195.34,250.65 173.79,250.65L173.78,250.65Z" style="fill:rgb(62,82,146);fill-rule:nonzero;"></path>
        <path d="M127.78,99.17L127.78,103.96C127.78,113.41 131.31,118.33 138.37,118.33C145.43,118.33 148.83,114.05 148.83,101.82C148.83,90.98 146.31,86.32 137.11,79.26C127.53,71.95 122.87,67.79 122.87,54.94C122.87,44.1 126.15,34.27 138.75,34.27C149.84,34.4 154.12,41.07 154.12,53.3L154.12,56.95L147.57,56.95L147.57,53.42C147.57,45.35 145.81,39.94 138.62,39.94C131.43,39.94 129.42,46.24 129.42,53.8C129.42,63.25 131.44,66.4 139.88,72.83C151.6,81.65 155.51,86.44 155.51,100.93C155.51,113.15 152.49,123.99 138.5,123.99C125.52,123.99 121.36,115.42 121.36,103.95L121.36,99.04L127.79,99.04L127.79,99.17L127.78,99.17Z" style="fill:rgb(62,82,146);fill-rule:nonzero;"></path>
        <path d="M198.35,76.11L198.35,109C198.35,123.74 192.43,130.04 180.33,130.04C166.97,130.04 162.94,120.84 162.94,107.61L162.94,74.85C162.94,60.99 168.74,52.92 180.83,52.92C193.81,52.92 198.35,64.14 198.35,76.11ZM169.62,74.98L169.62,107.87C169.62,119.72 173.9,124.13 180.71,124.13C187.52,124.13 191.67,119.85 191.67,107.24L191.67,75.11C191.67,63.89 187.64,58.98 180.58,58.98C173.15,58.85 169.62,63.77 169.62,74.98Z" style="fill:rgb(62,82,146);fill-rule:nonzero;"></path>
        <path d="M214.35,67.67L214.35,116.94C214.35,124.88 217.25,130.93 224.94,130.93C232.63,130.93 235.53,125.76 235.53,117.07L235.53,60.99L242.21,60.99L242.21,116.69C242.21,130.3 236.16,136.98 224.82,136.98C213.48,136.98 207.81,130.55 207.81,117.07L207.81,67.67L214.36,67.67L214.35,67.67Z" style="fill:rgb(62,82,146);fill-rule:nonzero;"></path>
        <path d="M257.95,110.89L257.95,44.36L251.78,39.44L251.78,116.44L279.5,116.44L280.39,110.89L257.95,110.89Z" style="fill:rgb(62,82,146);fill-rule:nonzero;"></path>
        <path d="M102.83,217.38L97.66,217.38C97.53,216.12 97.28,211.33 97.16,209.31C95.14,216.11 90.36,218.38 84.81,218.38C73.47,218.38 69.81,209.94 69.81,196.83L69.81,152.35C69.81,138.36 75.61,130.93 86.7,130.93C99.43,130.93 102.7,139.63 102.7,151.6L102.7,153.36L96.4,153.36L96.4,151.72C96.4,144.79 95.64,136.72 86.44,136.72C79.76,136.72 76.11,140.75 76.11,152.47L76.11,196.7C76.11,206.15 78.5,212.83 85.69,212.83C95.02,212.83 96.28,203.88 96.28,191.53L96.28,177.04L85.44,177.04L85.44,171.37L102.7,171.37L102.7,217.37L102.83,217.37L102.83,217.38Z" style="fill:rgb(62,82,146);fill-rule:nonzero;"></path>
        <path d="M120.47,183.48L115.68,210.45L109.38,210.45L123.62,128.41L132.69,128.41L147.56,210.45L141.01,210.45L135.84,183.48L120.47,183.48ZM134.84,177.68C131.19,155.88 128.79,140.88 128.16,133.83L127.91,133.83C127.66,140.13 124.26,160.04 121.48,177.68L134.84,177.68Z" style="fill:rgb(62,82,146);fill-rule:nonzero;"></path>
        <path d="M196.59,178.94C196.59,162.43 196.97,153.23 197.22,144.54L197.09,144.54C194.82,158.53 187.13,196.33 181.97,222.17L175.54,222.17C171.63,200.37 163.44,152.61 161.43,137.61L161.18,137.61C161.43,147.44 161.94,166.85 161.94,181.46L161.94,217.12L155.89,217.12L155.89,131.68L165.09,131.68C170.76,159.4 177.82,200.48 178.95,210.57L179.08,210.57C180.34,200.99 188.28,164.45 193.82,138.49L203.02,138.49L203.02,222.79L196.72,222.79L196.72,178.94L196.59,178.94Z" style="fill:rgb(62,82,146);fill-rule:nonzero;"></path>
        <path d="M241.95,182.85L222.54,182.85L222.54,216.62L244.34,216.62L243.46,222.42L216.24,222.42L216.24,145.55L243.08,145.55L243.08,151.35L222.54,151.35L222.54,177.06L241.95,177.06L241.95,182.86L241.95,182.85Z" style="fill:rgb(62,82,146);fill-rule:nonzero;"></path>
        <path d="M256.06,187.51L256.06,192.3C256.06,201.5 259.46,206.29 266.14,206.29C272.82,206.29 276.1,202.13 276.1,190.16C276.1,179.57 273.71,175.04 264.88,168.11C255.81,161.05 251.27,156.89 251.27,144.42C251.27,133.96 254.42,124.26 266.39,124.26C276.98,124.39 281.01,130.94 281.01,142.78L281.01,146.31L274.71,146.31L274.71,143.03C274.71,135.09 273.07,129.92 266.14,129.92C259.21,129.92 257.44,136.09 257.44,143.4C257.44,152.6 259.33,155.75 267.4,161.92C278.62,170.49 282.27,175.15 282.27,189.27C282.27,201.24 279.37,211.83 266.01,211.83C253.66,211.83 249.63,203.51 249.63,192.3L249.63,187.51L256.06,187.51Z" style="fill:rgb(62,82,146);fill-rule:nonzero;"></path>
        <path d="M116.06,57.72L63.39,56.08L87.96,29.11C88.09,28.98 88.09,28.73 87.96,28.61C87.83,28.49 87.58,28.48 87.46,28.61L60.49,53.06L58.72,0.38C58.72,0.25 58.59,0 58.34,0C58.21,0 57.96,0.13 57.96,0.38L56.32,53.05L29.23,28.48C29.1,28.35 28.85,28.35 28.73,28.48C28.61,28.61 28.6,28.86 28.73,28.98L53.3,56.07L0.38,57.84C0.25,57.84 0,57.97 0,58.22C0,58.35 0.13,58.6 0.38,58.6L53.43,60.36L28.73,87.33C28.6,87.46 28.6,87.71 28.73,87.83C28.86,87.95 29.11,87.96 29.23,87.83L56.32,63.13L58.08,115.93C58.08,116.06 58.21,116.31 58.46,116.31C58.71,116.31 58.84,116.18 58.84,115.93L60.6,63.13L86.94,86.95C87.07,87.08 87.32,87.08 87.44,86.95C87.56,86.82 87.57,86.57 87.44,86.45L63.5,60.11L116.05,58.35C116.18,58.35 116.43,58.22 116.43,57.97C116.43,57.84 116.3,57.72 116.05,57.72L116.06,57.72Z" style="fill:rgb(62,82,146);fill-rule:nonzero;"></path>
        <path d="M125.64,99.3L102.96,98.54L113.42,87.07C113.55,86.94 113.55,86.69 113.42,86.44C113.29,86.31 113.04,86.31 112.79,86.44L101.32,96.77L100.56,74.09C100.56,73.84 100.31,73.71 100.18,73.71C99.93,73.71 99.8,73.84 99.8,74.09L99.04,96.77L87.57,86.31C87.44,86.18 87.19,86.18 86.94,86.31C86.81,86.44 86.81,86.69 86.94,86.94L97.4,98.41L74.59,99.17C74.34,99.17 74.21,99.42 74.21,99.55C74.21,99.8 74.34,99.93 74.59,99.93L97.4,100.94L86.94,112.53C86.81,112.66 86.81,112.91 86.94,113.16C87.07,113.29 87.32,113.29 87.57,113.16L99.04,102.7L99.8,125.38C99.8,125.63 100.05,125.76 100.18,125.76C100.43,125.76 100.56,125.63 100.56,125.38L101.32,102.7L112.54,112.78C112.67,112.91 112.92,112.91 113.17,112.78C113.3,112.65 113.3,112.4 113.17,112.15L103.09,101.06L125.65,100.3C125.9,100.3 126.03,100.05 126.03,99.92C126.03,99.54 125.9,99.29 125.65,99.29L125.64,99.3Z" style="fill:rgb(62,82,146);fill-rule:nonzero;"></path>
        <path d="M99.43,47.38C98.67,47.38 98.04,47.13 97.54,46.5C96.66,45.49 96.78,43.85 97.79,42.97C118.96,25.08 145.93,15.12 173.78,15.12C199.11,15.12 223.3,23.06 243.59,38.05C244.72,38.81 244.98,40.44 244.09,41.58C243.33,42.71 241.7,42.97 240.56,42.08C221.03,27.71 197.97,20.15 173.65,20.15C147.06,20.15 121.23,29.6 100.94,46.74C100.56,47.24 100.06,47.37 99.43,47.37L99.43,47.38Z" style="fill:rgb(62,82,146);fill-rule:nonzero;"></path>
        <path d="M48.66,272.25L53.3,272.25C59.09,272.25 59.66,275.96 59.66,280.03L59.66,290.64C59.66,294.74 59.05,298.93 53.08,298.93L48.66,298.93L48.66,272.25ZM51.2,296.71L52.88,296.71C56.24,296.71 57.07,294.86 57.07,291.2L57.07,279.68C57.07,276.45 56.49,274.48 52.91,274.48L51.2,274.48L51.2,296.71Z" style="fill:rgb(62,82,146);fill-rule:nonzero;"></path>
        <path d="M65.49,272.25L65.49,293.09C65.49,295.35 66.3,296.95 68.39,296.95C70.48,296.95 71.27,295.49 71.27,293.12L71.27,272.25L73.83,272.25L73.83,293.01C73.83,297.12 71.99,299.28 68.34,299.28C64.69,299.28 62.95,297.26 62.95,293.09L62.95,272.25L65.49,272.25Z" style="fill:rgb(62,82,146);fill-rule:nonzero;"></path>
        <path d="M86.98,293.67C86.98,296.56 86.72,299.26 82.85,299.26C82.3,299.26 81.58,299.21 81.19,299.14L81.19,296.92C81.45,296.96 81.9,297 82.45,297C83.89,297 84.43,296.51 84.43,294.07L84.43,272.26L86.97,272.26L86.97,293.68L86.98,293.67Z" style="fill:rgb(62,82,146);fill-rule:nonzero;"></path>
        <path d="M99.43,285.84L93.42,285.84L93.42,296.6L100.22,296.6L99.87,298.93L90.88,298.93L90.88,272.25L99.78,272.25L99.78,274.6L93.42,274.6L93.42,283.51L99.43,283.51L99.43,285.84Z" style="fill:rgb(62,82,146);fill-rule:nonzero;"></path>
        <path d="M105,272.25L105,293.09C105,295.35 105.81,296.95 107.9,296.95C109.99,296.95 110.78,295.49 110.78,293.12L110.78,272.25L113.34,272.25L113.34,293.01C113.34,297.12 111.5,299.28 107.85,299.28C104.2,299.28 102.46,297.26 102.46,293.09L102.46,272.25L105,272.25Z" style="fill:rgb(62,82,146);fill-rule:nonzero;"></path>
        <path d="M122.69,272.25L127.33,272.25C133.12,272.25 133.7,275.96 133.7,280.03L133.7,290.64C133.7,294.74 133.08,298.93 127.12,298.93L122.7,298.93L122.7,272.25L122.69,272.25ZM125.23,296.71L126.91,296.71C130.27,296.71 131.1,294.86 131.1,291.2L131.1,279.68C131.1,276.45 130.52,274.48 126.95,274.48L125.24,274.48L125.24,296.71L125.23,296.71Z" style="fill:rgb(62,82,146);fill-rule:nonzero;"></path>
        <path d="M139.55,290.09L138.2,298.93L135.63,298.93L140.03,272.25L143.66,272.25L148.25,298.93L145.59,298.93L144.14,290.09L139.55,290.09ZM143.8,287.76C142.79,281.57 142.1,276.97 141.86,274.56L141.75,274.56C141.66,276.59 140.66,282.66 139.9,287.76L143.8,287.76Z" style="fill:rgb(62,82,146);fill-rule:nonzero;"></path>
        <path d="M150.62,298.93L150.62,272.25L153.68,272.25C155.21,277.47 159.04,291.65 159.51,294.01L159.58,294.01C159.43,290.35 159.38,286.6 159.38,282.25L159.38,272.25L161.79,272.25L161.79,298.93L158.82,298.93C157.26,293.49 153.37,278.79 152.81,276.43L152.77,276.43C152.94,279.64 153.03,284.06 153.03,288.87L153.03,298.92L150.6,298.92L150.62,298.93Z" style="fill:rgb(62,82,146);fill-rule:nonzero;"></path>
        <path d="M167.13,291.49L167.13,293.02C167.13,295.66 168.06,297.06 170,297.06C171.94,297.06 172.82,295.71 172.82,292.5C172.82,289.29 172.12,288.03 169.32,285.85C166.47,283.62 165.04,282.3 165.04,278.37C165.04,275.02 166.04,271.85 170.08,271.88C173.83,271.91 174.95,274.35 174.95,277.85L174.95,279.04L172.42,279.04L172.42,277.91C172.42,275.61 171.96,274.11 170.02,274.11C168.08,274.11 167.57,275.82 167.57,277.99C167.57,280.61 168.1,281.56 170.57,283.44C174.21,286.2 175.37,287.73 175.37,292.15C175.37,295.89 174.36,299.27 169.97,299.27C165.81,299.27 164.59,296.53 164.59,293.01L164.59,291.49L167.13,291.49Z" style="fill:rgb(62,82,146);fill-rule:nonzero;"></path>
        <path d="M186.78,298.93L182.13,272.25L184.87,272.25L186.73,284.47C187.3,288.23 188.13,292.97 188.37,295.67L188.42,295.67C188.63,293.05 189.5,288.29 190.06,284.58L191.98,272.25L194.68,272.25L189.99,298.93L186.78,298.93Z" style="fill:rgb(62,82,146);fill-rule:nonzero;"></path>
        <path d="M207.76,278.68L207.76,292.36C207.76,296.95 205.89,299.28 202.04,299.28C197.96,299.28 196.55,296.61 196.55,292.39L196.55,278.69C196.55,274.29 198.49,271.9 202.22,271.9C206.14,271.9 207.77,274.68 207.77,278.68L207.76,278.68ZM199.14,278.61L199.14,292.56C199.14,295.74 200.3,296.97 202.16,296.97C204.12,296.97 205.17,295.77 205.17,292.41L205.17,278.62C205.17,275.62 204.12,274.22 202.14,274.22C200.16,274.22 199.15,275.55 199.15,278.61L199.14,278.61Z" style="fill:rgb(62,82,146);fill-rule:nonzero;"></path>
        <path d="M212.64,291.49L212.64,293.02C212.64,295.66 213.57,297.06 215.51,297.06C217.45,297.06 218.33,295.71 218.33,292.5C218.33,289.29 217.63,288.03 214.83,285.85C211.98,283.62 210.55,282.3 210.55,278.37C210.55,275.02 211.55,271.85 215.59,271.88C219.34,271.91 220.46,274.35 220.46,277.85L220.46,279.04L217.93,279.04L217.93,277.91C217.93,275.61 217.47,274.11 215.53,274.11C213.59,274.11 213.08,275.82 213.08,277.99C213.08,280.61 213.61,281.56 216.08,283.44C219.72,286.2 220.88,287.73 220.88,292.15C220.88,295.89 219.87,299.27 215.48,299.27C211.32,299.27 210.1,296.53 210.1,293.01L210.1,291.49L212.64,291.49Z" style="fill:rgb(62,82,146);fill-rule:nonzero;"></path>
        <path d="M237.78,285.84L231.77,285.84L231.77,296.6L238.57,296.6L238.22,298.93L229.23,298.93L229.23,272.25L238.13,272.25L238.13,274.6L231.77,274.6L231.77,283.51L237.78,283.51L237.78,285.84Z" style="fill:rgb(62,82,146);fill-rule:nonzero;"></path>
        <path d="M240.91,298.93L240.91,272.25L243.97,272.25C245.5,277.47 249.33,291.65 249.8,294.01L249.87,294.01C249.72,290.35 249.67,286.6 249.67,282.25L249.67,272.25L252.08,272.25L252.08,298.93L249.11,298.93C247.55,293.49 243.66,278.79 243.1,276.43L243.06,276.43C243.23,279.64 243.32,284.06 243.32,288.87L243.32,298.92L240.89,298.92L240.91,298.93Z" style="fill:rgb(62,82,146);fill-rule:nonzero;"></path>
        <path d="M260.2,293.67C260.2,296.56 259.94,299.26 256.07,299.26C255.52,299.26 254.8,299.21 254.41,299.14L254.41,296.92C254.67,296.96 255.12,297 255.67,297C257.11,297 257.65,296.51 257.65,294.07L257.65,272.26L260.19,272.26L260.19,293.68L260.2,293.67Z" style="fill:rgb(62,82,146);fill-rule:nonzero;"></path>
        <path d="M272.66,285.84L266.65,285.84L266.65,296.6L273.45,296.6L273.1,298.93L264.11,298.93L264.11,272.25L273.01,272.25L273.01,274.6L266.65,274.6L266.65,283.51L272.66,283.51L272.66,285.84Z" style="fill:rgb(62,82,146);fill-rule:nonzero;"></path>
        <path d="M278.23,272.25L278.23,293.09C278.23,295.35 279.04,296.95 281.13,296.95C283.22,296.95 284.01,295.49 284.01,293.12L284.01,272.25L286.57,272.25L286.57,293.01C286.57,297.12 284.73,299.28 281.08,299.28C277.43,299.28 275.69,297.26 275.69,293.09L275.69,272.25L278.23,272.25Z" style="fill:rgb(62,82,146);fill-rule:nonzero;"></path>
        <path d="M297.92,298.93L294.43,287.6L294.39,287.6L290.8,298.93L288.18,298.93L292.95,285.04L288.46,272.24L291.22,272.24L294.48,282.31L294.52,282.31L297.82,272.24L300.48,272.24L295.93,284.72L300.75,298.93L297.92,298.93Z" style="fill:rgb(62,82,146);fill-rule:nonzero;"></path>
    </g>
</svg>
