<svg width="512" height="512" viewBox="0 0 512 512" fill="none" xmlns="http://www.w3.org/2000/svg">
  <!-- Background rounded square -->
  <rect width="512" height="512" rx="112" fill="#39334D"/>
  
  <!-- Stylized Pilates/running figure - flat design -->
  
  <!-- Head -->
  <circle cx="290" cy="120" r="36" fill="#C5AD8F"/>
  
  <!-- Torso (dynamic diagonal) -->
  <rect x="250" y="162" width="28" height="120" rx="14" fill="white" transform="rotate(-12 264 222)"/>
  
  <!-- Right arm (reaching forward/up) -->
  <rect x="275" y="170" width="95" height="22" rx="11" fill="white" transform="rotate(-30 275 181)"/>
  
  <!-- Left arm (reaching back) -->
  <rect x="175" y="195" width="90" height="20" rx="10" fill="#C5AD8F" transform="rotate(10 220 205)"/>
  
  <!-- Right leg (forward stride) -->
  <rect x="268" y="280" width="120" height="24" rx="12" fill="white" transform="rotate(40 268 292)"/>
  <!-- Right lower leg -->
  <rect x="345" y="348" width="75" height="22" rx="11" fill="white" transform="rotate(65 345 359)"/>
  
  <!-- Left leg (back stride) -->
  <rect x="170" y="290" width="110" height="24" rx="12" fill="#C5AD8F" transform="rotate(-35 225 302)"/>
  <!-- Left lower leg -->
  <rect x="128" y="365" width="70" height="20" rx="10" fill="#C5AD8F" transform="rotate(-60 163 375)"/>
</svg>
